<svg xmlns="http://www.w3.org/2000/svg" height="24" width="24" viewBox="0 0 24 24"><title>Group, User</title><g fill="#212121" class="nc-icon-wrapper"><g stroke-linecap="round" stroke-width="1.5" stroke="#212121" fill="none" stroke-linejoin="round"><path d="M2 19a4 4 0 0 1 4-4h4a4 4 0 0 1 4 4"></path><path d="M10.475 6.025a3.5 3.5 0 1 1-4.95 4.95 3.5 3.5 0 0 1 4.95-4.95"></path><path d="M16 14h3a3 3 0 0 1 3 3"></path><path d="M19.268 6.732a2.5 2.5 0 1 1-3.536 3.536 2.5 2.5 0 0 1 3.536-3.536"></path></g><path fill="none" d="M0 0h24v24H0z"></path></g></svg>