<svg xmlns="http://www.w3.org/2000/svg" height="24" width="24" viewBox="0 0 24 24"><title>tools settings</title><g fill="#212121" class="nc-icon-wrapper"><g stroke-linecap="round" stroke-width="1.5" stroke="#212121" fill="none" stroke-linejoin="round"><path d="M11.835 15l5 5a2.122 2.122 0 0 0 3-3l-5-5"></path><path d="M20.916 5.847a.19.19 0 0 1 .051.085c.47 1.567.106 3.33-1.132 4.568-1.251 1.251-3.038 1.609-4.617 1.117l-8.347 8.347c-.813.813-2.139.874-2.98.09A2.122 2.122 0 0 1 3.835 17l8.383-8.383c-.492-1.579-.134-3.366 1.117-4.617 1.238-1.238 3.001-1.602 4.568-1.132a.2.2 0 0 1 .085.051l.162.162a.2.2 0 0 1 0 .283L15.515 6l2.32 2.32 2.636-2.636a.2.2 0 0 1 .283 0l.162.163z"></path><path d="M2.933 4.293l.674 2.023A1 1 0 0 0 4.556 7h2.279V4.721a1 1 0 0 0-.684-.949l-2.023-.674a.5.5 0 0 0-.512.121l-.562.562a.5.5 0 0 0-.121.512z"></path><path d="M6.84 7l3.5 3.5"></path></g><path fill="none" d="M0 0h24v24H0z"></path></g></svg>