<svg xmlns="http://www.w3.org/2000/svg" height="24" width="24" viewBox="0 0 24 24"><g fill="#212121" class="nc-icon-wrapper"><g fill="none"><path d="M0 0h24v24H0z"></path><path stroke="#212121" stroke-linecap="round" stroke-linejoin="round" stroke-width="1.5" d="M8 4l1.3-1.625A1 1 0 0 1 10.081 2h3.839a1 1 0 0 1 .781.375L16 4v1a1 1 0 0 1-1 1H9a1 1 0 0 1-1-1V4z"></path><path stroke="#212121" stroke-linecap="round" stroke-linejoin="round" stroke-width="1.5" d="M8 4H6a2 2 0 0 0-2 2v13a2 2 0 0 0 2 2h12a2 2 0 0 0 2-2V6a2 2 0 0 0-2-2h-2"></path><path stroke="#212121" stroke-linecap="round" stroke-linejoin="round" stroke-width="1.5" d="M8 11h8"></path><path stroke="#212121" stroke-linecap="round" stroke-linejoin="round" stroke-width="1.5" d="M8 16h8"></path></g></g></svg>