<?xml version="1.0" encoding="utf-8"?>
<!-- Generator: Adobe Illustrator 26.3.1, SVG Export Plug-In . SVG Version: 6.00 Build 0)  -->
<svg version="1.1" id="Ebene_1" xmlns="http://www.w3.org/2000/svg" xmlns:xlink="http://www.w3.org/1999/xlink" x="0px" y="0px"
	 viewBox="0 0 24 24" style="enable-background:new 0 0 24 24;" xml:space="preserve">

<path d="M12,21.7c-0.3,0-0.6,0-0.9,0c-4.6-0.4-8.4-4.2-8.8-8.8c-0.2-1.8,0.2-3.6,1-5.2c0,0,0-0.1,0-0.1
	c0.5-0.9,1.1-1.8,1.8-2.5c2-2,4.9-3.1,7.8-2.8l0,0c4.6,0.4,8.4,4.2,8.8,8.8c0.3,2.9-0.8,5.7-2.8,7.8C17.1,20.7,14.6,21.7,12,21.7z
	 M4.3,9.1c-0.4,1.1-0.6,2.4-0.5,3.6c0.3,3.9,3.6,7.1,7.5,7.5c2.5,0.2,4.9-0.7,6.6-2.4c1.7-1.7,2.6-4.1,2.4-6.6c-0.3-3.2-2.5-6-5.5-7
	l-1,4c-0.1,0.3-0.3,0.5-0.5,0.5L9.5,9.6l-0.9,1.7c-0.1,0.2-0.3,0.3-0.5,0.4c-0.2,0.1-0.4,0-0.6-0.1L4.3,9.1z M4.9,7.8l2.8,2.1
	l0.6-1.2c0.1-0.2,0.3-0.3,0.5-0.4l3.6-0.9l0.9-3.5c-0.2,0-0.3,0-0.5-0.1c-2.5-0.2-4.9,0.7-6.6,2.4C5.7,6.6,5.3,7.2,4.9,7.8z
	 M15,17.8h-3c-0.3,0-0.5-0.1-0.6-0.3l-2-3c-0.2-0.3-0.2-0.7,0.1-0.9l1.1-1.1c0.2-0.2,0.4-0.2,0.6-0.2l1.9,0.1c0.1,0,0.3,0.1,0.4,0.1
	l2.9,2c0.3,0.2,0.4,0.6,0.3,1l-1,2C15.5,17.6,15.3,17.8,15,17.8z M12.4,16.2h2.1l0.5-1l-2.2-1.5l-1.4-0.1L11,14.1L12.4,16.2z"/>
</svg>
