<svg xmlns="http://www.w3.org/2000/svg" height="24" width="24" viewBox="0 0 24 24"><g fill="#212121" class="nc-icon-wrapper"><g fill="none"><path d="M0 0h24v24H0V0z"></path><path stroke="#212121" stroke-linecap="round" stroke-linejoin="round" stroke-width="1.5" d="M9.225 6.452a2.775 2.775 0 0 1 5.55 0A2.775 2.775 0 0 1 12 9.227a2.777 2.777 0 0 1-2.775-2.775z"></path><path stroke="#212121" stroke-linecap="round" stroke-linejoin="round" stroke-width="1.5" d="M2.5 17.548a2.775 2.775 0 0 1 5.55 0 2.774 2.774 0 1 1-5.55 0z"></path><path stroke="#212121" stroke-linecap="round" stroke-linejoin="round" stroke-width="1.5" d="M15.951 17.548a2.775 2.775 0 0 1 5.55 0 2.774 2.774 0 1 1-5.55 0z"></path><path stroke="#212121" stroke-linecap="round" stroke-linejoin="round" stroke-width="1.5" d="M8.49 11.92l-2.01 3.14"></path><path stroke="#212121" stroke-linecap="round" stroke-linejoin="round" stroke-width="1.5" d="M13.5 8.78l2.01 3.14"></path><path stroke="#212121" stroke-linecap="round" stroke-linejoin="round" stroke-width="1.5" d="M15.95 17.55H12"></path></g></g></svg>