<svg width="2117" height="512" viewBox="0 0 2117 512" fill="none" xmlns="http://www.w3.org/2000/svg">
<path d="M491.989 251.801V223.287H562.715V251.801H491.989ZM490 360.147V205.323C490 194.87 492.329 185.651 496.987 177.667C501.645 169.683 508.107 163.414 516.38 158.846C524.653 154.284 534.206 152 545.037 152C553.399 152 560.526 153.427 566.426 156.28C572.319 159.134 577.835 163.222 582.966 168.545L562.722 188.786C560.438 186.501 557.968 184.698 555.307 183.367C552.645 182.036 549.222 181.371 545.045 181.371C537.437 181.371 531.596 183.419 527.507 187.499C523.419 191.588 521.378 197.435 521.378 205.035V360.147H490.007H490Z" fill="#242424" stroke="#242424" stroke-width="1.2"/>
<path d="M615.651 198.196C610.328 198.196 605.907 196.392 602.387 192.777C598.868 189.17 597.108 184.697 597.108 179.374C597.108 174.052 598.861 169.587 602.387 165.972C605.907 162.364 610.321 160.553 615.651 160.553C620.982 160.553 625.632 162.364 629.056 165.972C632.479 169.587 634.187 174.052 634.187 179.374C634.187 184.697 632.479 189.17 629.056 192.777C625.632 196.392 621.167 198.196 615.651 198.196ZM599.97 360.147V223.287H631.34V360.147H599.97Z" fill="#242424" stroke="#242424" stroke-width="1.2"/>
<path d="M661.383 360.146V154.853H692.753V360.146H661.383V360.146Z" fill="#242424" stroke="#242424" stroke-width="1.2"/>
<path d="M721.83 360.146V223.286H753.201V360.146H721.83ZM812.8 360.146V278.597C812.8 269.475 809.946 262.393 804.245 257.358C798.545 252.324 791.506 249.803 783.144 249.803C777.444 249.803 772.35 250.942 767.891 253.226C763.426 255.51 759.855 258.785 757.2 263.065C754.539 267.346 753.208 272.521 753.208 278.605L740.942 271.759C740.942 261.306 743.227 252.28 747.789 244.673C752.35 237.073 758.524 231.129 766.324 226.849C774.117 222.569 782.863 220.432 792.556 220.432C802.249 220.432 810.996 222.524 818.788 226.701C826.581 230.885 832.762 236.777 837.324 244.377C841.885 251.984 844.17 261.106 844.17 271.752V360.146H812.8V360.146ZM903.769 360.146V278.597C903.769 269.475 900.915 262.393 895.215 257.358C889.514 252.324 882.476 249.803 874.114 249.803C868.598 249.803 863.563 250.942 859.001 253.226C854.44 255.51 850.824 258.785 848.163 263.065C845.501 267.346 844.17 272.521 844.17 278.605L826.492 271.759C827.439 261.306 830.485 252.28 835.616 244.673C840.747 237.073 847.349 231.129 855.438 226.849C863.519 222.569 872.406 220.432 882.099 220.432C891.792 220.432 900.923 222.524 908.907 226.701C916.892 230.885 923.258 236.777 928.012 244.377C932.759 251.984 935.14 261.106 935.14 271.752V360.146H903.769V360.146Z" fill="#242424" stroke="#242424" stroke-width="1.2"/>
<path d="M961.655 360.146V154.853H993.026V360.146H961.655V360.146Z" fill="#242424" stroke="#242424" stroke-width="1.2"/>
<path d="M1088.42 354.567C1074.73 354.567 1062.42 351.477 1051.49 345.304C1040.55 339.131 1031.9 330.622 1025.53 319.785C1019.16 308.947 1015.98 296.786 1015.98 283.287C1015.98 269.788 1019.12 257.672 1025.39 246.93C1031.66 236.196 1040.17 227.687 1050.92 221.411C1061.65 215.142 1073.58 212 1086.7 212C1099.82 212 1110.7 214.95 1120.49 220.842C1130.28 226.734 1137.97 234.814 1143.59 245.075C1149.19 255.343 1152 267.031 1152 280.145C1152 282.43 1151.86 284.758 1151.57 287.131C1151.28 289.512 1150.86 292.121 1150.29 294.975H1037.93V269.315H1120.96L1122 279.234C1121.62 270.873 1120.35 264.177 1117.49 258.478C1114.64 252.778 1110.6 248.401 1105.38 245.363C1100.15 242.325 1093.73 240.802 1086.13 240.802C1078.15 240.802 1071.2 242.509 1065.31 245.932C1059.42 249.355 1054.86 254.153 1051.63 260.333C1048.4 266.513 1046.78 273.876 1046.78 282.43C1046.78 290.983 1048.48 298.494 1051.91 304.955C1055.33 311.416 1060.18 316.406 1066.45 319.925C1072.72 323.444 1079.94 325.203 1088.12 325.203C1095.15 325.203 1101.67 323.969 1107.65 321.5C1113.64 319.031 1118.73 315.416 1122.91 310.662L1142.87 330.903C1136.22 338.702 1128.13 344.587 1118.63 348.579C1109.13 352.571 1099.05 354.567 1088.41 354.567H1088.42Z" fill="#242424" stroke="#242424" stroke-width="1.2"/>
<path d="M1153.42 251.8V223.287H1250.38V251.8H1153.42ZM1186.22 360.146V166.26H1217.59V360.146H1186.22Z" fill="#242424" stroke="#242424" stroke-width="1.2"/>
<path d="M139.72 370.79V455.628C139.72 459.11 143.15 461.619 146.478 460.544L195.528 444.774C216.929 437.913 231.419 418.048 231.419 395.571V344.627C231.419 341.145 227.989 338.636 224.661 339.712L143.304 365.824C141.153 366.489 139.72 368.486 139.72 370.739V370.79Z" fill="#ABDCFF"/>
<path d="M146.487 339.047L336.439 278.068C357.841 271.207 372.331 251.341 372.331 228.865V177.921C372.331 174.439 368.9 171.93 365.572 173.005L143.364 244.378C141.214 245.044 139.78 247.041 139.78 249.293V334.132C139.78 337.613 143.211 340.122 146.539 339.047H146.487Z" fill="#2295FF"/>
<path d="M146.48 217.498L368.688 146.125C370.838 145.46 372.272 143.463 372.272 141.21V56.3718C372.272 52.8902 368.841 50.3815 365.513 51.4566L175.561 112.436C154.16 119.297 139.67 139.162 139.67 161.639V212.583C139.67 216.065 143.1 218.573 146.428 217.498H146.48Z" fill="#1951E2"/>
<path d="M1374.04 360V342.36H1404.95C1413.02 342.36 1420.07 340.624 1426.12 337.152C1432.28 333.68 1437.04 328.864 1440.4 322.704C1443.87 316.432 1445.61 309.208 1445.61 301.032C1445.61 292.968 1443.87 285.856 1440.4 279.696C1436.93 273.536 1432.11 268.72 1425.95 265.248C1419.9 261.776 1412.9 260.04 1404.95 260.04H1374.04V242.4H1405.46C1413.97 242.4 1421.86 243.912 1429.14 246.936C1436.42 249.848 1442.75 253.992 1448.13 259.368C1453.62 264.632 1457.87 270.848 1460.9 278.016C1463.92 285.072 1465.43 292.8 1465.43 301.2C1465.43 309.488 1463.92 317.216 1460.9 324.384C1457.87 331.552 1453.67 337.824 1448.3 343.2C1442.92 348.464 1436.59 352.608 1429.31 355.632C1422.03 358.544 1414.19 360 1405.79 360H1374.04ZM1360.77 360V242.4H1380.09V360H1360.77ZM1538.55 361.68C1530.15 361.68 1522.31 360.112 1515.03 356.976C1507.75 353.84 1501.37 349.528 1495.88 344.04C1490.39 338.44 1486.08 332 1482.94 324.72C1479.92 317.328 1478.41 309.432 1478.41 301.032C1478.41 292.632 1479.92 284.792 1482.94 277.512C1486.08 270.232 1490.34 263.848 1495.71 258.36C1501.2 252.76 1507.53 248.448 1514.7 245.424C1521.98 242.288 1529.82 240.72 1538.22 240.72C1546.62 240.72 1554.4 242.288 1561.57 245.424C1568.85 248.448 1575.23 252.76 1580.72 258.36C1586.21 263.848 1590.46 270.288 1593.49 277.68C1596.62 284.96 1598.19 292.8 1598.19 301.2C1598.19 309.6 1596.62 317.496 1593.49 324.888C1590.46 332.168 1586.21 338.552 1580.72 344.04C1575.34 349.528 1569.02 353.84 1561.74 356.976C1554.57 360.112 1546.84 361.68 1538.55 361.68ZM1538.22 343.2C1546.17 343.2 1553.11 341.408 1559.05 337.824C1565.1 334.24 1569.8 329.312 1573.16 323.04C1576.63 316.656 1578.37 309.32 1578.37 301.032C1578.37 294.872 1577.36 289.272 1575.34 284.232C1573.44 279.08 1570.7 274.656 1567.11 270.96C1563.53 267.152 1559.27 264.24 1554.34 262.224C1549.53 260.208 1544.15 259.2 1538.22 259.2C1530.38 259.2 1523.43 260.992 1517.38 264.576C1511.45 268.048 1506.74 272.92 1503.27 279.192C1499.91 285.464 1498.23 292.744 1498.23 301.032C1498.23 307.192 1499.18 312.904 1501.09 318.168C1503.1 323.32 1505.85 327.744 1509.32 331.44C1512.9 335.136 1517.16 338.048 1522.09 340.176C1527.02 342.192 1532.39 343.2 1538.22 343.2ZM1671.9 361.68C1663.39 361.68 1655.49 360.168 1648.21 357.144C1641.05 354.008 1634.77 349.696 1629.4 344.208C1624.02 338.608 1619.88 332.168 1616.97 324.888C1614.05 317.496 1612.6 309.6 1612.6 301.2C1612.6 292.8 1614.05 284.96 1616.97 277.68C1619.88 270.288 1624.02 263.848 1629.4 258.36C1634.77 252.872 1641.05 248.56 1648.21 245.424C1655.49 242.288 1663.39 240.72 1671.9 240.72C1681.42 240.72 1689.65 242.288 1696.6 245.424C1703.54 248.56 1709.7 252.816 1715.08 258.192L1701.97 271.296C1698.5 267.488 1694.25 264.52 1689.21 262.392C1684.28 260.264 1678.51 259.2 1671.9 259.2C1666.08 259.2 1660.76 260.208 1655.94 262.224C1651.13 264.24 1646.93 267.152 1643.34 270.96C1639.87 274.656 1637.18 279.08 1635.28 284.232C1633.37 289.384 1632.42 295.04 1632.42 301.2C1632.42 307.36 1633.37 313.016 1635.28 318.168C1637.18 323.32 1639.87 327.8 1643.34 331.608C1646.93 335.304 1651.13 338.16 1655.94 340.176C1660.76 342.192 1666.08 343.2 1671.9 343.2C1679.07 343.2 1685.12 342.136 1690.05 340.008C1695.09 337.768 1699.34 334.744 1702.81 330.936L1715.92 344.04C1710.54 349.528 1704.21 353.84 1696.93 356.976C1689.65 360.112 1681.31 361.68 1671.9 361.68ZM1763.28 361.68C1753.98 361.68 1746.09 360 1739.59 356.64C1733.09 353.28 1727.27 348.352 1722.12 341.856L1735.22 328.752C1738.47 333.456 1742.33 337.152 1746.81 339.84C1751.29 342.416 1757.01 343.704 1763.95 343.704C1770.45 343.704 1775.6 342.36 1779.41 339.672C1783.33 336.984 1785.29 333.288 1785.29 328.584C1785.29 324.664 1784.28 321.472 1782.26 319.008C1780.25 316.544 1777.56 314.528 1774.2 312.96C1770.95 311.28 1767.31 309.824 1763.28 308.592C1759.36 307.248 1755.38 305.792 1751.35 304.224C1747.43 302.544 1743.79 300.472 1740.43 298.008C1737.18 295.544 1734.55 292.352 1732.53 288.432C1730.52 284.512 1729.51 279.528 1729.51 273.48C1729.51 266.536 1731.19 260.656 1734.55 255.84C1738.02 250.912 1742.67 247.16 1748.49 244.584C1754.32 242.008 1760.81 240.72 1767.98 240.72C1775.71 240.72 1782.6 242.232 1788.65 245.256C1794.81 248.28 1799.79 252.144 1803.6 256.848L1790.49 269.952C1787.13 266.144 1783.61 263.344 1779.91 261.552C1776.33 259.648 1772.18 258.696 1767.48 258.696C1761.65 258.696 1757.06 259.872 1753.7 262.224C1750.45 264.576 1748.83 267.88 1748.83 272.136C1748.83 275.72 1749.84 278.632 1751.85 280.872C1753.87 283 1756.5 284.848 1759.75 286.416C1763.11 287.872 1766.75 289.272 1770.67 290.616C1774.7 291.96 1778.68 293.472 1782.6 295.152C1786.63 296.832 1790.27 299.016 1793.52 301.704C1796.88 304.28 1799.57 307.64 1801.58 311.784C1803.6 315.928 1804.61 321.136 1804.61 327.408C1804.61 337.936 1800.85 346.28 1793.35 352.44C1785.96 358.6 1775.93 361.68 1763.28 361.68Z" fill="#ADADAD"/>
</svg>
