<svg width="512" height="512" viewBox="0 0 512 512" fill="none" xmlns="http://www.w3.org/2000/svg">
<path d="M139.72 370.79V455.628C139.72 459.11 143.15 461.619 146.478 460.544L195.528 444.774C216.929 437.913 231.419 418.048 231.419 395.571V344.627C231.419 341.145 227.989 338.636 224.661 339.712L143.304 365.824C141.153 366.489 139.72 368.486 139.72 370.739V370.79Z" fill="#ABDCFF"/>
<path d="M146.487 339.047L336.439 278.068C357.841 271.207 372.331 251.341 372.331 228.865V177.921C372.331 174.439 368.9 171.93 365.572 173.005L143.364 244.378C141.214 245.044 139.78 247.041 139.78 249.293V334.132C139.78 337.613 143.211 340.122 146.539 339.047H146.487Z" fill="#2295FF"/>
<path d="M146.48 217.498L368.688 146.125C370.838 145.46 372.272 143.463 372.272 141.21V56.3718C372.272 52.8902 368.841 50.3815 365.513 51.4566L175.561 112.436C154.16 119.297 139.67 139.162 139.67 161.639V212.583C139.67 216.065 143.1 218.573 146.428 217.498H146.48Z" fill="#1951E2"/>
</svg>
